<svg width="50" height="50" viewBox="0 0 50 50" fill="none" xmlns="http://www.w3.org/2000/svg">
<path d="M20.8333 4.16663H29.1666C30.2717 4.16663 31.3315 4.60561 32.1129 5.38701C32.8943 6.16842 33.3333 7.22822 33.3333 8.33329V12.5H41.6666C42.7717 12.5 43.8315 12.9389 44.6129 13.7203C45.3943 14.5017 45.8333 15.5616 45.8333 16.6666V28.1875C43.5453 26.1309 40.5764 24.9953 37.5 25C35.3063 25.0017 33.1517 25.5802 31.2522 26.6775C29.3527 27.7748 27.7751 29.3523 26.6776 31.2517C25.5802 33.1511 25.0015 35.3057 24.9996 37.4994C24.9976 39.693 25.5725 41.8486 26.6666 43.75H8.33329C7.22822 43.75 6.16842 43.311 5.38701 42.5296C4.60561 41.7482 4.16663 40.6884 4.16663 39.5833V16.6666C4.16663 14.3541 6.02079 12.5 8.33329 12.5H16.6666V8.33329C16.6666 6.02079 18.5208 4.16663 20.8333 4.16663ZM29.1666 12.5V8.33329H20.8333V12.5H29.1666ZM39.5833 38.5416V35.4166H31.25V31.25H39.5833V28.125L45.8333 33.3333L39.5833 38.5416ZM35.4166 39.5833H43.75V43.75H35.4166V46.875L29.1666 41.6666L35.4166 36.4583V39.5833Z" fill="white"/>
</svg>
