<svg width="50" height="50" viewBox="0 0 50 50" fill="none" xmlns="http://www.w3.org/2000/svg">
<g clip-path="url(#clip0_49_313)">
<path d="M29.8535 33.4336C26.3359 37.1728 20.0498 35.6885 18.5655 30.7681C17.0819 25.8498 21.4983 21.1523 26.4976 22.3279C32.1768 17.4705 40.9997 9.95575 46.1101 5.79393C47.8923 4.34179 49.4194 5.98153 48.0311 7.71503C43.9789 12.7785 36.3916 21.6658 31.4913 27.3652C31.9633 29.4162 31.4932 31.6906 29.8535 33.4336ZM42.2605 24.9973C42.2605 23.5238 40.6546 22.598 39.3768 23.3347C38.0989 24.0714 38.0989 25.9231 39.3768 26.6599C40.6546 27.3966 42.2605 26.4706 42.2605 24.9973ZM13.4443 17.313C13.4443 15.8395 11.8384 14.9137 10.5605 15.6504C9.28271 16.3871 9.28271 18.2388 10.5605 18.9756C11.8384 19.7124 13.4443 18.7863 13.4443 17.313ZM11.5233 24.9973C11.5233 23.5238 9.91738 22.598 8.63955 23.3347C7.36162 24.0714 7.36162 25.9231 8.63955 26.6599C9.91748 27.3966 11.5233 26.4706 11.5233 24.9973ZM19.2076 11.5497C19.2076 10.0764 17.6017 9.15048 16.3238 9.8871C15.046 10.6238 15.046 12.4756 16.3238 13.2123C17.6017 13.9489 19.2076 13.023 19.2076 11.5497ZM34.5762 11.5497C34.5762 10.0764 32.9702 9.15048 31.6924 9.8871C30.4145 10.6238 30.4145 12.4756 31.6924 13.2123C32.9702 13.9489 34.5762 13.023 34.5762 11.5497ZM26.8919 9.6286C26.8919 8.15526 25.2859 7.22938 24.0081 7.9661C22.7303 8.70282 22.7303 10.5545 24.0081 11.2912C25.2859 12.0279 26.8919 11.102 26.8919 9.6286ZM43.4709 19.8861C45.7388 28.2802 42.2488 37.9315 33.4373 42.253C20.2089 48.7407 4.8247 38.3987 5.8123 23.682C6.79941 8.96718 23.4209 0.813759 35.6613 9.03788L40.4357 5.38856C25.3981 -6.50802 3.03007 2.38788 0.270114 21.3629C-2.49004 40.3379 16.4094 55.2894 34.2072 48.2111C48.1707 42.6577 53.3133 26.7826 47.6193 14.4548L43.4709 19.8861Z" fill="#F8F8F8"/>
</g>
<defs>
<clipPath id="clip0_49_313">
<rect width="50" height="50" fill="white"/>
</clipPath>
</defs>
</svg>
