<svg width="18" height="18" viewBox="0 0 18 18" fill="none" xmlns="http://www.w3.org/2000/svg">
<path d="M5.5 0.75C5.5 0.551088 5.42098 0.360322 5.28033 0.21967C5.13968 0.0790175 4.94891 0 4.75 0C4.55109 0 4.36032 0.0790175 4.21967 0.21967C4.07902 0.360322 4 0.551088 4 0.75V3.25C4 3.44891 3.92098 3.63968 3.78033 3.78033C3.63968 3.92098 3.44891 4 3.25 4H0.75C0.551088 4 0.360322 4.07902 0.21967 4.21967C0.0790175 4.36032 0 4.55109 0 4.75C0 4.94891 0.0790175 5.13968 0.21967 5.28033C0.360322 5.42098 0.551088 5.5 0.75 5.5H3.25C3.84674 5.5 4.41903 5.26295 4.84099 4.84099C5.26295 4.41903 5.5 3.84674 5.5 3.25V0.75ZM5.5 17.25C5.5 17.4489 5.42098 17.6397 5.28033 17.7803C5.13968 17.921 4.94891 18 4.75 18C4.55109 18 4.36032 17.921 4.21967 17.7803C4.07902 17.6397 4 17.4489 4 17.25V14.75C4 14.5511 3.92098 14.3603 3.78033 14.2197C3.63968 14.079 3.44891 14 3.25 14H0.75C0.551088 14 0.360322 13.921 0.21967 13.7803C0.0790175 13.6397 0 13.4489 0 13.25C0 13.0511 0.0790175 12.8603 0.21967 12.7197C0.360322 12.579 0.551088 12.5 0.75 12.5H3.25C3.84674 12.5 4.41903 12.7371 4.84099 13.159C5.26295 13.581 5.5 14.1533 5.5 14.75V17.25ZM13.25 0C13.0511 0 12.8603 0.0790175 12.7197 0.21967C12.579 0.360322 12.5 0.551088 12.5 0.75V3.25C12.5 3.84674 12.7371 4.41903 13.159 4.84099C13.581 5.26295 14.1533 5.5 14.75 5.5H17.25C17.4489 5.5 17.6397 5.42098 17.7803 5.28033C17.921 5.13968 18 4.94891 18 4.75C18 4.55109 17.921 4.36032 17.7803 4.21967C17.6397 4.07902 17.4489 4 17.25 4H14.75C14.5511 4 14.3603 3.92098 14.2197 3.78033C14.079 3.63968 14 3.44891 14 3.25V0.75C14 0.551088 13.921 0.360322 13.7803 0.21967C13.6397 0.0790175 13.4489 0 13.25 0ZM12.5 17.25C12.5 17.4489 12.579 17.6397 12.7197 17.7803C12.8603 17.921 13.0511 18 13.25 18C13.4489 18 13.6397 17.921 13.7803 17.7803C13.921 17.6397 14 17.4489 14 17.25V14.75C14 14.5511 14.079 14.3603 14.2197 14.2197C14.3603 14.079 14.5511 14 14.75 14H17.25C17.4489 14 17.6397 13.921 17.7803 13.7803C17.921 13.6397 18 13.4489 18 13.25C18 13.0511 17.921 12.8603 17.7803 12.7197C17.6397 12.579 17.4489 12.5 17.25 12.5H14.75C14.1533 12.5 13.581 12.7371 13.159 13.159C12.7371 13.581 12.5 14.1533 12.5 14.75V17.25Z" fill="#292929"/>
</svg>
