<svg width="40" height="40" viewBox="0 0 40 40" fill="none" xmlns="http://www.w3.org/2000/svg">
<rect width="40" height="40" rx="20" fill="#292929"/>
<path fill-rule="evenodd" clip-rule="evenodd" d="M10 17.25C10 16.9185 10.1317 16.6005 10.3661 16.3661C10.6005 16.1317 10.9185 16 11.25 16H24.135C24.4665 16 24.7845 16.1317 25.0189 16.3661C25.2533 16.6005 25.385 16.9185 25.385 17.25C25.385 17.5815 25.2533 17.8995 25.0189 18.1339C24.7845 18.3683 24.4665 18.5 24.135 18.5H11.25C10.9185 18.5 10.6005 18.3683 10.3661 18.1339C10.1317 17.8995 10 17.5815 10 17.25ZM10 12.25C10 11.9185 10.1317 11.6005 10.3661 11.3661C10.6005 11.1317 10.9185 11 11.25 11H28.75C29.0815 11 29.3995 11.1317 29.6339 11.3661C29.8683 11.6005 30 11.9185 30 12.25C30 12.5815 29.8683 12.8995 29.6339 13.1339C29.3995 13.3683 29.0815 13.5 28.75 13.5H11.25C10.9185 13.5 10.6005 13.3683 10.3661 13.1339C10.1317 12.8995 10 12.5815 10 12.25ZM10 22.25C10 21.9185 10.1317 21.6005 10.3661 21.3661C10.6005 21.1317 10.9185 21 11.25 21H28.75C29.0815 21 29.3995 21.1317 29.6339 21.3661C29.8683 21.6005 30 21.9185 30 22.25C30 22.5815 29.8683 22.8995 29.6339 23.1339C29.3995 23.3683 29.0815 23.5 28.75 23.5H11.25C10.9185 23.5 10.6005 23.3683 10.3661 23.1339C10.1317 22.8995 10 22.5815 10 22.25ZM10 27.25C10 26.9185 10.1317 26.6005 10.3661 26.3661C10.6005 26.1317 10.9185 26 11.25 26H24.135C24.4665 26 24.7845 26.1317 25.0189 26.3661C25.2533 26.6005 25.385 26.9185 25.385 27.25C25.385 27.5815 25.2533 27.8995 25.0189 28.1339C24.7845 28.3683 24.4665 28.5 24.135 28.5H11.25C10.9185 28.5 10.6005 28.3683 10.3661 28.1339C10.1317 27.8995 10 27.5815 10 27.25Z" fill="#F8F8F8"/>
</svg>
