<svg width="22" height="22" viewBox="0 0 22 22" fill="none" xmlns="http://www.w3.org/2000/svg">
<path d="M8.00006 10.5001H10.5001M10.5001 10.5001H13.0001M10.5001 10.5001V13.0001M10.5001 10.5001V8.00006M19.0001 19.0001L21.0001 21.0001M5.75006 2.27006C7.74615 1.11818 10.0929 0.731181 12.3532 1.18115C14.6134 1.63111 16.633 2.88736 18.0358 4.71588C19.4385 6.54439 20.1288 8.82048 19.9779 11.1201C19.8271 13.4198 18.8454 15.5862 17.2158 17.2158C15.5862 18.8454 13.4198 19.8271 11.1201 19.9779C8.82048 20.1288 6.54439 19.4385 4.71588 18.0358C2.88736 16.633 1.63111 14.6134 1.18115 12.3532C0.731181 10.0929 1.11818 7.74615 2.27006 5.75006" stroke="#292929" stroke-width="1.5" stroke-linecap="round"/>
</svg>
